<svg xmlns="http://www.w3.org/2000/svg" width="32" height="32" fill="currentColor" class="bi bi-threads" viewBox="0 0 16 16">
  <path d="M6.321 6.016c-.27-.18-1.552-1.11-1.552-3.837 0-1.332.305-2.13.614-2.582a.75.75 0 0 1 1.056-.166c.264.184.454.456.619.782.162.324.239.734.239 1.218 0 1.229-.4 2.4-1.332 3.633a28 28 0 0 1-.644.952m4.126.91c.219-.13.385-.297.587-.511a19 19 0 0 0 1.553-2.18c.376-.642.66-1.294.81-1.84.145-.53.111-1.076-.143-1.614-.241-.51-.626-.855-1.107-.855-.423 0-.766.27-.978.614-.23.376-.437.989-.537 1.839-.087.733.02 1.638.356 2.453.115.281.25.541.4.774a36 36 0 0 0 .548.788M4.536 7.429a1.7 1.7 0 0 1 .494-1.215 1.7 1.7 0 0 1 1.21-.498c.47 0 .918.19 1.254.526a1.7 1.7 0 0 1 .524 1.227c0 .484-.19.932-.52 1.263a1.75 1.75 0 0 1-1.258.532 1.75 1.75 0 0 1-1.246-.532 1.75 1.75 0 0 1-.502-1.258m1.23-2.433c-.02-.016-.039-.033-.058-.05-.188-.168-.328-.352-.397-.532a1.7 1.7 0 0 1 .235-1.53c.189-.283.585-.436 1.066-.436.528 0 .942.18 1.15.534.195.334.205.776.012 1.346-.176.518-.466 1.096-.827 1.666a26 26 0 0 0-.466.621q-.457.6-1.042 1.155a5.5 5.5 0 0 1-.327-2.673l.354-.101Zm3.763 3.61c.459-1.063.486-2.227.355-3.085-.118-1-.41-1.785-.91-2.39C8.32.327 7.456 0 6.467 0c-.81 0-1.543.237-2.124.787-.564.534-.9 1.272-.9 2.146 0 3.125 1.201 4.542 1.748 5.097-1.18.773-1.895 1.866-1.895 3.085 0 2.296 2.016 4.103 5.094 4.103 2.094 0 3.76-.902 4.67-2.348l-1.196-.807c-.642 1.018-1.884 1.708-3.376 1.708-1.928 0-3.328-1.04-3.328-2.646 0-1.08.721-2.028 1.957-2.613a4.2 4.2 0 0 0 1.986.37c.75.05 1.543-.07 2.138-.636.568-.544.821-1.34.402-2.454.492-.09.96-.138 1.408-.138 1.89 0 3.295 1.218 3.295 3.176 0 2.21-1.42 4.316-3.415 4.316-2.23 0-3.666-2.008-3.666-4.509 0-2.624 1.487-5.592 3.86-5.592 1.2 0 2.163.626 2.502 1.636.08.236.14.478.182.72.033.204.093.22.14.22h1.492c0-.12-.047-.417-.123-.698-.372-1.353-1.614-2.326-3.23-2.326C10.669 1.345 8.423 5.343 8.423 9.38c0 3.486 2.03 6.075 5.166 6.075 2.768 0 4.904-2.083 4.904-5.066 0-2.864-1.898-4.706-4.704-4.706-.61 0-1.192.062-1.742.062-1.742 0-2.827-.58-3.417-1.345"/>
</svg>
